<svg width="512" height="512" xmlns="http://www.w3.org/2000/svg">

 <g>
  <title>background</title>
  <rect fill="none" id="canvas_background" height="402" width="582" y="-1" x="-1"/>
 </g>
 <g>
  <title>Layer 1</title>
  <path id="svg_1" fill="#ff79b0" d="m102.419,255.73c0,-76.215 -0.049,-152.454 0,-228.682c0,-16.713 12.056,-28.793 27.57,-26.842c5.188,0.643 10.82,3.41 14.823,6.856c79.551,68.915 158.854,138.052 238.253,207.176c3.806,3.323 7.709,6.559 11.464,9.98c20.209,18.406 20.357,45.482 -0.099,63.529c-30.98,27.3 -62.257,54.276 -93.434,81.378c-51.09,44.421 -102.23,88.741 -153.17,133.284c-8.895,7.732 -18.233,12.6 -29.696,7.484c-11.809,-5.262 -15.91,-15.168 -15.86,-27.916c0.248,-75.422 0.149,-150.822 0.149,-226.247z"/>
 </g>
</svg>