<svg width="35" height="36" viewBox="0 0 35 36" fill="none" xmlns="http://www.w3.org/2000/svg">
<path d="M25.3492 33.0084C22.2362 34.6405 19.479 35.1301 15.9653 35.1301C6.40377 35.1301 0 28.4387 0 18.9729C0 9.01715 7.20433 0 19.212 0C29.7078 0 35 6.89545 35 14.6883C35 22.3182 30.5969 26.6013 25.394 26.6013C22.6368 26.6017 21.0798 25.0027 20.8576 22.1126H20.7243C19.4346 24.6415 16.9444 26.6017 13.8754 26.6017C10.6291 26.6017 8.3163 23.8886 8.3163 19.9313C8.3163 13.1988 13.1637 8.08871 20.1015 8.08871C22.4583 8.08871 24.9489 8.65481 26.3719 9.43008L24.7708 17.914C24.0595 21.5863 24.6819 23.0129 26.2831 23.0541C28.1952 23.0541 31.2194 20.8504 31.2194 14.689C31.2194 8.03849 26.8166 2.9378 18.5892 2.9378C11.9629 2.9378 3.95765 8.97633 3.95765 18.7279C3.95765 27.0515 9.73932 32.1106 16.6322 32.1106C19.3453 32.1106 21.9244 31.4986 24.2372 30.1927L25.3492 33.0084ZM20.9913 11.9141C20.6354 11.7508 19.7904 11.5875 19.0787 11.5875C16.5882 11.5875 13.9643 14.4845 13.9643 18.4422C13.9643 20.1152 14.5868 21.4616 16.2323 21.4616C17.9223 21.4616 19.4342 19.0133 20.0126 16.4429L20.9913 11.9141Z" fill="#333333"/>
</svg>
