<svg width="35" height="35" viewBox="0 0 35 35" fill="none" xmlns="http://www.w3.org/2000/svg">
<path fill-rule="evenodd" clip-rule="evenodd" d="M10.2334 17.4167C10.2019 17.4167 10.5787 18.1955 10.5892 18.1955C11.4117 19.6291 12.9972 20.5202 15.6718 20.7675C15.2903 21.0455 14.8318 21.5731 14.7682 22.1828C14.2882 22.4807 13.3227 22.5793 12.5726 22.352C11.5208 22.0335 11.1183 20.0353 9.54392 20.3202C9.20325 20.3812 9.27092 20.5971 9.5655 20.7811C10.0456 21.0791 10.4971 21.4523 10.8453 22.246C11.1131 22.8556 11.6754 23.9445 13.4546 23.9445C14.1604 23.9445 14.6551 23.863 14.6551 23.863C14.6551 23.863 14.6685 25.419 14.6685 26.0241C14.6685 26.7221 13.6873 26.9187 13.6873 27.2543C13.6873 27.387 14.0122 27.3995 14.273 27.3995C14.7887 27.3995 15.8614 26.9865 15.8614 26.2612C15.8614 25.6851 15.8713 23.7485 15.8713 23.4089C15.8713 22.6682 16.2849 22.4335 16.2849 22.4335C16.2849 22.4335 16.3362 26.3876 16.1863 26.9187C16.0102 27.542 15.6922 27.4537 15.6922 27.7317C15.6922 28.1454 16.9837 27.8337 17.4119 26.9249C17.7427 26.219 17.598 22.3383 17.598 22.3383L17.9509 22.3315C17.9509 22.3315 17.9707 24.1074 17.9585 24.9193C17.9462 25.7603 17.8867 26.8235 18.4071 27.3249C18.7489 27.6548 19.8561 28.2331 19.8561 27.7044C19.8561 27.3973 19.2494 27.1449 19.2494 26.3136V22.4876C19.7342 22.4876 19.6613 23.7456 19.6613 23.7456L19.6968 26.0834C19.6968 26.0834 19.5895 26.9346 20.6564 27.2907C21.0327 27.4178 21.8377 27.452 21.8756 27.2394C21.9135 27.0269 20.9061 26.7107 20.8967 26.052C20.8909 25.6492 20.9154 25.4145 20.9154 23.6664C20.9154 21.9184 20.671 21.2723 19.8187 20.7572C22.4484 20.498 24.0765 19.8735 24.8692 18.2012C24.9311 18.2029 25.193 17.4201 25.1586 17.4201C25.3365 16.7888 25.4327 16.0418 25.4514 15.1575C25.4467 12.7588 24.2509 11.9104 24.0217 11.5122C24.36 9.6963 23.9645 8.87014 23.7813 8.58639C23.1035 8.35507 21.4241 9.1818 20.5059 9.7641C19.0103 9.34418 15.8474 9.38464 14.6615 9.87236C12.4734 8.36874 11.3155 8.59893 11.3155 8.59893C11.3155 8.59893 10.5671 9.88603 11.1177 11.7697C10.3979 12.6505 9.86125 13.2739 9.86125 14.9256C9.86183 15.8566 9.97617 16.6896 10.2334 17.4167ZM0 0H35V34.186H0V0Z" fill="#333333"/>
</svg>
