<svg width="264" height="60" viewBox="0 0 264 60" fill="none" xmlns="http://www.w3.org/2000/svg">
<path d="M7.16797 46C5.25391 46 3.98438 46.0391 3.35938 46.1172V19.9062C3.67188 19.9844 4.31641 20.0234 5.29297 20.0234C6.28255 20.0234 7.42839 19.9974 8.73047 19.9453V41.3125H12.7734C13.9453 41.3125 14.8828 41.2734 15.5859 41.1953C15.4948 44.2422 15.4492 45.8242 15.4492 45.9414V46.1367C14.1732 46.0456 12.0312 46 9.02344 46H7.16797ZM18.6133 35.9609C18.6133 34.4375 18.8737 33.0247 19.3945 31.7227C19.9154 30.4206 20.651 29.2812 21.6016 28.3047C23.6328 26.2344 26.2891 25.1992 29.5703 25.1992C32.3438 25.1992 34.5703 26.1172 36.25 27.9531C37.9036 29.724 38.7305 31.9505 38.7305 34.6328C38.7305 35.6615 38.6523 36.3646 38.4961 36.7422C37.194 37.1068 34.5443 37.2891 30.5469 37.2891H23.6719C24.0104 38.6823 24.7982 39.7695 26.0352 40.5508C27.2721 41.319 28.8802 41.7031 30.8594 41.7031C32.9297 41.7031 34.707 41.332 36.1914 40.5898C36.582 40.3945 36.875 40.2122 37.0703 40.043C37.0443 40.5898 37.0117 41.1497 36.9727 41.7227L36.7578 44.7695C35.7682 45.4466 34.1667 45.9154 31.9531 46.1758C31.3021 46.2539 30.6771 46.293 30.0781 46.293C26.7708 46.293 24.0365 45.3294 21.875 43.4023C19.7005 41.4622 18.6133 38.9818 18.6133 35.9609ZM33.5352 33.5C33.0013 30.7005 31.4779 29.3008 28.9648 29.3008C26.9857 29.3008 25.4818 30.1536 24.4531 31.8594C24.1406 32.3802 23.8997 32.9531 23.7305 33.5781C24.043 33.5911 24.4271 33.6042 24.8828 33.6172H26.3281C26.8099 33.6302 27.2721 33.6367 27.7148 33.6367H28.8281C29.4922 33.6367 30.1432 33.6302 30.7812 33.6172L32.3828 33.5586C32.8125 33.5456 33.1966 33.526 33.5352 33.5ZM41.5039 35.9023C41.5039 34.4701 41.7448 33.1029 42.2266 31.8008C42.7214 30.4857 43.4245 29.3398 44.3359 28.3633C46.3281 26.2539 48.9128 25.1992 52.0898 25.1992C55.2539 25.1992 57.7669 26.1953 59.6289 28.1875C61.4128 30.0885 62.3047 32.556 62.3047 35.5898C62.3047 38.6237 61.3867 41.1367 59.5508 43.1289C57.6107 45.2383 55.0391 46.293 51.8359 46.293C48.5286 46.293 45.9375 45.2578 44.0625 43.1875C42.3568 41.2995 41.5039 38.8711 41.5039 35.9023ZM46.25 35.7852C46.25 36.6055 46.3867 37.3997 46.6602 38.168C46.9336 38.9362 47.3242 39.5938 47.832 40.1406C48.9128 41.3255 50.332 41.918 52.0898 41.918C53.7174 41.918 55 41.3385 55.9375 40.1797C56.849 39.0599 57.3047 37.6016 57.3047 35.8047C57.3047 33.9818 56.8359 32.5104 55.8984 31.3906C54.8958 30.1927 53.5221 29.5938 51.7773 29.5938C50.0065 29.5938 48.6198 30.2318 47.6172 31.5078C46.7057 32.6797 46.25 34.1055 46.25 35.7852ZM71.4648 45.5898V51.332C71.4648 52.4518 71.4909 53.181 71.543 53.5195H66.6797V25.5898H71.4648V26.8594C73.0404 25.7526 74.5508 25.1992 75.9961 25.1992C77.4414 25.1992 78.724 25.401 79.8438 25.8047C80.9635 26.2083 81.9466 26.8333 82.793 27.6797C84.6549 29.5156 85.5859 32.1328 85.5859 35.5312C85.5859 37.7839 85.0586 39.7956 84.0039 41.5664C83.1055 43.0638 81.862 44.2617 80.2734 45.1602C78.8672 45.9544 77.3438 46.3516 75.7031 46.3516C74.0625 46.3516 72.6497 46.0977 71.4648 45.5898ZM71.4648 40.668C72.4544 41.5013 73.737 41.918 75.3125 41.918C77.8906 41.918 79.5573 40.6745 80.3125 38.1875C80.5729 37.3411 80.7031 36.4362 80.7031 35.4727C80.7031 34.4961 80.612 33.7214 80.4297 33.1484C80.2474 32.5625 80.0065 32.0612 79.707 31.6445C79.4206 31.2148 79.0951 30.8633 78.7305 30.5898C78.3659 30.3034 77.9948 30.0755 77.6172 29.9062C76.9531 29.6068 76.2695 29.457 75.5664 29.457C74.8633 29.457 74.1341 29.6198 73.3789 29.9453C72.6237 30.2708 71.9857 30.707 71.4648 31.2539V40.668ZM103.184 44.7891C101.335 45.7917 99.6615 46.293 98.1641 46.293C96.6667 46.293 95.3841 46.1562 94.3164 45.8828C93.2487 45.5964 92.3438 45.1797 91.6016 44.6328C90.0911 43.526 89.3359 41.9245 89.3359 39.8281C89.3359 37.9531 90.2604 36.3906 92.1094 35.1406C94.1146 33.7865 96.8359 33.1094 100.273 33.1094L101.055 33.1289C101.211 33.1419 101.387 33.1549 101.582 33.168C101.777 33.168 101.953 33.181 102.109 33.207C102.005 31.1237 101.107 29.9062 99.4141 29.5547C98.8542 29.4375 98.2552 29.3789 97.6172 29.3789C96.9922 29.3789 96.3737 29.4375 95.7617 29.5547C95.1628 29.6589 94.5768 29.8021 94.0039 29.9844C92.7409 30.388 91.8359 30.8503 91.2891 31.3711L91.2305 31.332L90.6445 27.0156C92.9492 25.8047 95.4688 25.1992 98.2031 25.1992C102.448 25.1992 105.163 26.7292 106.348 29.7891C106.725 30.7656 106.914 31.8659 106.914 33.0898V40.1602C106.914 41.6706 107.448 42.6992 108.516 43.2461L104.98 46.4883C104.238 46.0977 103.639 45.5312 103.184 44.7891ZM102.129 36.7227C101.777 36.6576 101.413 36.625 101.035 36.625H100.254C97.3763 36.625 95.5469 37.263 94.7656 38.5391C94.5312 38.9167 94.4141 39.3138 94.4141 39.7305C94.4141 40.1471 94.4857 40.5182 94.6289 40.8438C94.7852 41.1562 95.0391 41.4167 95.3906 41.625C96.0677 42.0156 97.0703 42.2109 98.3984 42.2109C99.7396 42.2109 100.99 41.8919 102.148 41.2539C102.135 41.1107 102.129 40.9609 102.129 40.8047V36.7227ZM117.637 43.8125C117.637 44.9323 117.663 45.6615 117.715 46H112.852V25.5898H117.637V27.0938C118.743 25.8307 119.902 25.1992 121.113 25.1992C122.337 25.1992 123.301 25.349 124.004 25.6484L123.652 30.9023L123.574 30.9609C123.118 30.1536 122.174 29.75 120.742 29.75C120.195 29.75 119.635 29.9388 119.062 30.3164C118.503 30.681 118.027 31.1693 117.637 31.7812V43.8125ZM140.391 44.9062C138.737 45.8307 137.083 46.293 135.43 46.293C133.776 46.293 132.331 46.0326 131.094 45.5117C129.857 44.9909 128.802 44.2747 127.93 43.3633C126.133 41.4883 125.234 39.0534 125.234 36.0586C125.234 32.9596 126.276 30.3815 128.359 28.3242C130.456 26.2409 133.138 25.1992 136.406 25.1992C137.409 25.1992 138.392 25.3294 139.355 25.5898V16.8984H144.141V37.7773C144.141 39.5091 144.219 40.6419 144.375 41.1758C144.544 41.7096 144.727 42.1003 144.922 42.3477C145.13 42.5951 145.391 42.8294 145.703 43.0508L142.031 46.293C141.354 45.9284 140.807 45.4661 140.391 44.9062ZM136.348 41.8008C137.441 41.8008 138.444 41.5924 139.355 41.1758V30.3555C138.444 29.9779 137.454 29.7891 136.387 29.7891C135.319 29.7891 134.401 29.9323 133.633 30.2188C132.878 30.5052 132.227 30.9023 131.68 31.4102C130.534 32.4779 129.961 33.8646 129.961 35.5703C129.961 37.4323 130.482 38.9167 131.523 40.0234C132.643 41.2083 134.251 41.8008 136.348 41.8008Z" fill="#6D6DAA"/>
<path d="M225 19.5352C227.435 19.5352 229.512 19.9583 231.23 20.8047V26.7812L231.191 26.8203C230.462 25.7005 228.926 24.9583 226.582 24.5938C225.892 24.4766 225.02 24.418 223.965 24.418C222.91 24.418 221.875 24.6198 220.859 25.0234C219.844 25.4141 219.01 25.974 218.359 26.7031C217.096 28.1224 216.465 30.1471 216.465 32.7773C216.465 35.8372 217.266 38.1159 218.867 39.6133C220.195 40.8633 221.953 41.4883 224.141 41.4883C226.615 41.4883 228.62 40.9609 230.156 39.9062C230.716 39.5286 231.191 39.0599 231.582 38.5L231.641 38.5391V44.0078C229.648 45.6615 226.966 46.4883 223.594 46.4883C219.622 46.4883 216.51 45.2253 214.258 42.6992C212.096 40.2904 211.016 37.1003 211.016 33.1289C211.016 28.9232 212.201 25.6094 214.57 23.1875C216.966 20.7526 220.443 19.5352 225 19.5352ZM240.371 46C238.457 46 237.188 46.0391 236.562 46.1172V19.9062C236.875 19.9844 237.52 20.0234 238.496 20.0234C239.486 20.0234 240.632 19.9974 241.934 19.9453V41.3125H245.977C247.148 41.3125 248.086 41.2734 248.789 41.1953C248.698 44.2422 248.652 45.8242 248.652 45.9414V46.1367C247.376 46.0456 245.234 46 242.227 46H240.371ZM253.887 19.9453C255.189 19.9974 255.977 20.0234 256.25 20.0234H257.656C258.346 20.0234 258.9 19.9714 259.316 19.8672L259.297 46H253.887V19.9453Z" fill="#6D6DAA"/>
<path d="M164 28C164 28 170.875 16.875 185 22C186.994 22.7235 187 20.125 191 21C192.285 21.2812 193.583 19.4167 196 18.6889C195.833 17.3333 196.418 14.9485 197.5 15C198.313 15.1019 199.078 15.4406 199.701 15.974C200.323 16.5074 200.775 17.2119 201 18C201.723 18.5218 202.418 19.0803 203.084 19.6733C203.349 19.9135 203.207 21.1945 203.417 21.4167C204.764 22.8428 205.498 22.918 205 24C203.083 28.1667 200.583 27 198.25 26.6667C197.522 26.5583 196.779 26.6664 196.112 26.9776C195.445 27.2888 194.884 27.7893 194.5 28.4167C194.116 28.9925 193 31.5 191.167 32.5833C191.083 34.1667 192.933 35.8118 191.167 38.0833C190.583 38.8333 187.017 42.2667 183.517 42.7667C180.017 43.2667 180.105 38.759 181.933 38.6001C185.767 38.2667 186.433 35.7667 186.433 35.7667C185.754 34.9635 185.264 34.018 185 33C182.513 34.3311 177.75 30.875 178 33C178.341 35.8982 172 39 172 39C172 39 176.369 40.2037 177 42C178.083 45.0833 174.152 46.555 172.417 44.25C170.411 41.5865 167 41.625 166.007 40.0425C165.053 38.522 169 37.424 169 36C169 33.625 166.75 34.125 165 33C162.5 33.125 160.5 34.8999 156.2 33.7999C154.834 33.5013 153.597 32.7805 152.664 31.7395C151.73 30.6985 151.148 29.3902 151 28C150.784 26.5456 151.032 25.06 151.711 23.7553C152.389 22.4507 153.462 21.3937 154.777 20.7352C157.77 19.1856 159.75 22.75 157.083 24.1667C155.713 24.8947 154.643 26.8626 155.5 28.4334C156.5 30.2667 159.5 30.625 164 28Z" fill="#FFC661"/>
<g opacity="0.2">
<path opacity="0.2" d="M176.678 41.4537C175.708 42.6384 173.576 43.331 172.417 41.7917C170.91 39.7914 168.139 39.2002 166.667 38.4167C165.802 39.0577 165.531 39.2841 166.007 40.0425C167 41.625 170.411 41.5865 172.417 44.25C174.152 46.555 178.083 45.0833 177 42C176.924 41.8012 176.815 41.6166 176.678 41.4537Z" fill="#750000"/>
<path opacity="0.2" d="M185.75 33.25C186.25 30.875 184.969 29.2137 184.417 29.4167C181.583 30.4583 178.167 30.5833 175.708 29.1667C176.958 35.5 172.167 36.9583 171.417 38.4167C171.417 38.4167 171.667 39.5417 172.958 39.0417C174.548 37.8927 178.176 34.4919 178 33C177.75 30.875 182.708 34.875 185.75 33.25Z" fill="#750000"/>
<path opacity="0.2" d="M204.294 22.2623C202.492 24.8967 200.307 23.9605 198.25 23.6667C197.522 23.5583 196.779 23.6664 196.112 23.9776C195.445 24.2888 194.884 24.7892 194.5 25.4167C193.457 27.0341 192.242 28.5339 190.877 29.8897C190.568 30.1691 190.352 30.5355 190.256 30.9406C190.16 31.3457 190.19 31.7703 190.341 32.1581C190.469 32.4735 190.578 32.7964 190.667 33.125C192.107 31.6955 193.392 30.1173 194.5 28.4167C194.884 27.7892 195.445 27.2888 196.112 26.9776C196.779 26.6664 197.522 26.5583 198.25 26.6667C200.583 27 203.083 28.1667 205 24C205.375 23.1858 205.051 22.9409 204.294 22.2623Z" fill="#750000"/>
<path opacity="0.2" d="M191.042 35.875C189.14 38.1615 186.448 39.6489 183.5 40.0417C183.056 40.0981 182.604 40.03 182.196 39.845C181.788 39.6601 181.44 39.3655 181.189 38.9941C180.882 39.372 180.699 39.8363 180.667 40.3227C180.635 40.809 180.756 41.2932 181.011 41.708C181.267 42.1228 181.646 42.4477 182.095 42.6374C182.544 42.8271 183.041 42.8723 183.517 42.7667C187.017 42.2667 190.583 38.8333 191.167 38.0833C191.581 37.5752 191.841 36.9593 191.916 36.3082C191.991 35.6571 191.879 34.9981 191.592 34.4089C191.446 34.9109 191.262 35.4011 191.042 35.875V35.875Z" fill="#750000"/>
</g>
<g opacity="0.5">
<path opacity="0.5" d="M155.386 28.6445C154.913 29.4996 154.676 30.1631 155.458 30.8333C156.917 32.0833 160.292 32.7917 165.042 29.75C165.042 29.75 170.625 19.875 184.75 25C186.744 25.7235 186.75 23.125 190.75 24C192.035 24.2812 194.5 21.6861 196.917 20.9583C197.75 20.5833 197.708 18.375 197.958 18.2917C198.393 18.1467 200 19 200.75 21C201.583 21.611 204.514 22.8428 203.167 21.4167C202.957 21.1945 203.099 19.9135 202.834 19.6733C202.168 19.0803 201.473 18.5218 200.75 18C200.525 17.2119 200.073 16.5074 199.451 15.974C198.828 15.4406 198.063 15.1019 197.25 15C196.168 14.9485 195.583 17.3333 195.75 18.6889C193.333 19.4167 192.035 21.2812 190.75 21C186.75 20.125 186.744 22.7235 184.75 22C170.625 16.875 163.75 28 163.75 28C159.432 30.5188 156.501 30.2867 155.386 28.6445Z" fill="white"/>
<path opacity="0.5" d="M190.917 35.5833C190.944 36.213 191.088 36.8321 191.342 37.4089C191.702 36.7028 191.779 35.8863 191.559 35.1251C191.358 35.2949 191.143 35.4481 190.917 35.5833Z" fill="white"/>
<path opacity="0.5" d="M150.853 28.486C151.071 27.4699 151.515 26.5157 152.151 25.6936C152.786 24.8714 153.598 24.2022 154.527 23.7352C154.95 23.4672 155.445 23.3323 155.946 23.3478C156.447 23.3633 156.931 23.5286 157.338 23.8223C159.198 22.2541 157.302 19.2988 154.527 20.7352C153.212 21.3937 152.139 22.4507 151.461 23.7553C150.782 25.06 150.534 26.5456 150.75 28C150.771 28.1752 150.822 28.3205 150.853 28.486Z" fill="white"/>
</g>
<path d="M174.636 46.377C174.048 46.3792 173.468 46.2421 172.944 45.977C172.419 45.7118 171.965 45.3262 171.618 44.8516C170.667 43.7502 169.43 42.9342 168.043 42.4942C166.907 42.1671 165.9 41.4965 165.16 40.5743C164.135 38.9395 165.832 37.7037 166.847 36.9649C167.286 36.6913 167.678 36.3482 168.007 35.9488C168 35.2188 167.776 35.0884 166.521 34.7061C165.913 34.5412 165.323 34.3117 164.763 34.0215C164.104 34.1158 163.454 34.2671 162.821 34.4737C160.613 35.2579 158.22 35.3606 155.952 34.7686C154.39 34.423 152.976 33.5953 151.909 32.4026C150.842 31.2098 150.177 29.7122 150.008 28.1212C149.771 26.4647 150.059 24.7757 150.832 23.2915C151.605 21.8074 152.823 20.6028 154.316 19.8472C154.695 19.6013 155.12 19.4355 155.566 19.3598C156.011 19.2841 156.467 19.3002 156.906 19.4071C157.345 19.514 157.757 19.7094 158.118 19.9814C158.478 20.2534 158.78 20.5962 159.003 20.9888C159.187 21.3485 159.295 21.742 159.321 22.1451C159.347 22.5483 159.291 22.9525 159.155 23.3329C159.019 23.7133 158.807 24.0619 158.531 24.3571C158.255 24.6524 157.922 24.8881 157.552 25.0498C156.943 25.398 156.49 25.9642 156.283 26.6338C156.203 26.8527 156.172 27.0863 156.19 27.3185C156.209 27.5508 156.278 27.7763 156.391 27.9796C156.505 28.1829 156.662 28.3592 156.85 28.4965C157.038 28.6337 157.254 28.7287 157.482 28.7749C158.819 29.1465 160.936 28.5928 163.301 27.2485C164.426 25.6387 171.777 16.1392 185.341 21.0601C185.734 21.2021 185.853 21.1377 186.424 20.7773C187.114 20.2998 187.903 19.9839 188.733 19.8533C189.562 19.7227 190.41 19.7807 191.214 20.023C191.472 20.0811 192.114 19.6616 192.673 19.2896C193.394 18.7801 194.166 18.3457 194.976 17.9932C194.975 16.7845 195.367 15.6083 196.091 14.6406C196.271 14.4327 196.495 14.2674 196.747 14.1568C196.999 14.0462 197.272 13.993 197.547 14.001C198.506 14.0951 199.419 14.4618 200.177 15.0579C200.934 15.6539 201.506 16.4544 201.823 17.3647C202.587 17.9331 203.221 18.4473 203.756 18.9326C203.945 19.1561 204.088 19.4148 204.177 19.6937C204.266 19.9727 204.298 20.2664 204.273 20.5581C204.28 20.6743 204.284 20.7891 204.295 20.8862C204.58 21.1768 204.833 21.4023 205.045 21.5918C205.764 22.2344 206.578 22.9634 205.908 24.418C203.921 28.7393 201.079 28.2041 199.003 27.812C198.703 27.7553 198.404 27.6987 198.108 27.6562C197.567 27.5737 197.014 27.6548 196.519 27.8891C196.024 28.1234 195.611 28.5003 195.332 28.9712C195.271 29.0625 195.19 29.2119 195.086 29.3989C194.388 30.8073 193.412 32.0597 192.217 33.0806C192.285 33.3498 192.369 33.6152 192.466 33.8755C192.849 34.6443 193.004 35.5065 192.914 36.3607C192.824 37.2149 192.491 38.0255 191.956 38.6973C191.429 39.375 187.658 43.1851 183.658 43.7563C183.054 43.8893 182.425 43.8489 181.842 43.6399C181.26 43.4308 180.749 43.0616 180.367 42.5747C180.001 42.0696 179.773 41.478 179.705 40.8579C179.636 40.2379 179.73 39.6108 179.978 39.0381C180.128 38.6507 180.382 38.3121 180.711 38.0592C181.041 37.8063 181.434 37.6488 181.847 37.604C182.513 37.6123 183.172 37.4614 183.768 37.1639C184.364 36.8664 184.881 36.4309 185.275 35.8936C184.903 35.383 184.584 34.8355 184.323 34.2598C182.917 34.3563 181.507 34.1519 180.187 33.6602C179.814 33.5508 179.351 33.4145 179.008 33.3413C178.901 35.5791 176.358 37.584 174.42 38.7944C175.844 39.4063 177.487 40.3682 177.943 41.6684C178.271 42.4405 178.297 43.3076 178.016 44.098C177.735 44.8883 177.168 45.5443 176.426 45.936C175.874 46.2269 175.259 46.3783 174.636 46.377ZM166.882 39.5508C167.436 40.0554 168.095 40.4302 168.812 40.648C170.531 41.2188 172.056 42.258 173.216 43.6485C173.468 43.9934 173.835 44.2362 174.251 44.3325C174.667 44.4288 175.104 44.3722 175.481 44.1729C175.641 44.0906 175.782 43.9774 175.898 43.84C176.013 43.7026 176.1 43.5436 176.154 43.3724C176.207 43.2011 176.226 43.0209 176.209 42.8423C176.193 42.6636 176.141 42.49 176.057 42.3316C175.759 41.4849 173.355 40.4126 171.733 39.9639C171.538 39.9097 171.364 39.7973 171.233 39.6417C171.103 39.4861 171.024 39.2946 171.005 39.0926C170.986 38.8906 171.029 38.6877 171.128 38.5108C171.228 38.3339 171.378 38.1914 171.561 38.1021C173.86 36.9742 177.183 34.6099 177.007 33.1167C176.956 32.8508 176.976 32.5763 177.064 32.3202C177.151 32.0642 177.305 31.8355 177.508 31.6567C178.271 31.0132 179.366 31.334 180.75 31.7412C182.041 32.1201 183.645 32.5913 184.528 32.1182C184.676 32.0389 184.842 31.9981 185.01 31.9998C185.178 32.0014 185.343 32.0453 185.489 32.1274C185.636 32.2096 185.759 32.3273 185.848 32.4697C185.937 32.6122 185.989 32.7748 185.998 32.9424C186.244 33.7507 186.657 34.4983 187.21 35.1367C187.309 35.2592 187.378 35.4035 187.411 35.5578C187.444 35.7121 187.44 35.872 187.399 36.0244C187.365 36.1543 186.501 39.2066 182.021 39.5962C181.958 39.6016 181.869 39.7066 181.806 39.8511C181.707 40.0978 181.669 40.3651 181.696 40.6296C181.724 40.8941 181.815 41.148 181.963 41.3692C182.137 41.5614 182.362 41.7013 182.611 41.7733C182.861 41.8453 183.125 41.8465 183.375 41.7769C186.409 41.3433 189.788 38.2266 190.378 37.4692C191.223 36.3833 190.951 35.6079 190.577 34.5347C190.309 33.9003 190.17 33.2189 190.168 32.5303C190.177 32.3657 190.227 32.206 190.312 32.0651C190.398 31.9243 190.516 31.8066 190.658 31.7227C191.806 30.8572 192.726 29.726 193.339 28.4263C193.477 28.1787 193.587 27.9834 193.668 27.8623C194.154 27.0748 194.861 26.4478 195.701 26.0592C196.541 25.6706 197.477 25.5376 198.392 25.6767C198.717 25.7231 199.044 25.7846 199.374 25.8466C201.409 26.229 202.756 26.4834 204.092 23.582C204.111 23.5395 204.125 23.5058 204.135 23.4795C204.042 23.3784 203.862 23.2172 203.711 23.082C203.43 22.83 203.085 22.521 202.69 22.1035C202.386 21.6948 202.24 21.1901 202.277 20.6821C202.27 20.5634 202.259 20.3881 202.244 20.2636C201.74 19.8193 201.138 19.3408 200.408 18.8066C200.252 18.6913 200.132 18.533 200.064 18.3511C199.903 17.7652 199.583 17.2356 199.139 16.8215C198.694 16.4073 198.144 16.1249 197.548 16.0058C197.095 16.7786 196.9 17.6758 196.992 18.5668C197.021 18.801 196.966 19.0378 196.838 19.2354C196.709 19.433 196.514 19.5786 196.288 19.6464C195.391 19.9536 194.546 20.3945 193.781 20.9541C192.807 21.6035 191.888 22.2138 190.786 21.977C190.237 21.7928 189.652 21.7413 189.08 21.8268C188.507 21.9123 187.963 22.1323 187.491 22.4687C187.101 22.7861 186.634 22.9965 186.138 23.0791C185.641 23.1617 185.132 23.1137 184.659 22.9399C179.1 20.9228 174.077 21.2568 169.727 23.9301C167.796 25.1019 166.135 26.6679 164.851 28.5258C164.765 28.6652 164.645 28.7812 164.504 28.8637C161.512 30.6093 158.895 31.2441 156.946 30.7016C156.461 30.584 156.006 30.3672 155.609 30.0649C155.212 29.7626 154.882 29.3813 154.64 28.9452C154.398 28.509 154.248 28.0274 154.201 27.5307C154.155 27.0339 154.211 26.5329 154.367 26.059C154.731 24.879 155.536 23.8847 156.614 23.2832C157.384 22.8745 157.438 22.3096 157.231 21.9175C156.958 21.3975 156.233 21.106 155.236 21.6235C154.102 22.1877 153.177 23.0976 152.594 24.222C152.011 25.3464 151.8 26.627 151.992 27.8789C152.111 29.0711 152.608 30.1942 153.409 31.0849C154.21 31.9756 155.275 32.5873 156.448 32.8311C158.369 33.3337 160.398 33.2369 162.262 32.5537C163.133 32.2636 164.035 32.0782 164.95 32.0015C165.159 31.9916 165.365 32.0465 165.541 32.1587C166.031 32.4401 166.557 32.6535 167.105 32.793C168.326 33.165 170 33.6753 170 36C170 37.1426 168.95 37.9072 168.023 38.5815C167.604 38.8556 167.22 39.1813 166.882 39.5508Z" fill="#6D6DAA"/>
<path d="M198.832 22.5C198.578 22.4996 198.333 22.4023 198.148 22.228C197.963 22.0537 197.851 21.8154 197.836 21.5616C197.82 21.3079 197.902 21.0577 198.064 20.8619C198.226 20.6661 198.457 20.5395 198.709 20.5078C199.248 20.4487 199.79 20.4182 200.333 20.4165C200.598 20.4165 200.853 20.5219 201.04 20.7094C201.228 20.8969 201.333 21.1513 201.333 21.4165C201.333 21.6817 201.228 21.9361 201.04 22.1236C200.853 22.3111 200.598 22.4165 200.333 22.4165C199.873 22.4184 199.414 22.4437 198.957 22.4922C198.916 22.4974 198.874 22.5 198.832 22.5V22.5Z" fill="#6D6DAA"/>
<path d="M181 30C180.735 29.9961 180.482 29.8925 180.29 29.71C180.202 29.6127 180.131 29.5011 180.08 29.3799C180.029 29.2597 180.002 29.1307 180 29C180.002 28.7348 180.106 28.4805 180.29 28.29C180.43 28.149 180.609 28.0528 180.803 28.0137C180.998 27.9747 181.2 27.9945 181.383 28.0706C181.567 28.1468 181.724 28.2759 181.833 28.4414C181.943 28.6069 182.001 28.8014 182 29C182.003 29.1311 181.976 29.2612 181.92 29.3799C181.869 29.5011 181.798 29.6127 181.71 29.71C181.518 29.8923 181.265 29.9959 181 30V30Z" fill="#6D6DAA"/>
<path d="M185 32C184.735 31.9981 184.481 31.8943 184.29 31.71C184.247 31.6624 184.207 31.6123 184.17 31.5601C184.132 31.5044 184.102 31.4438 184.08 31.3799C184.051 31.3231 184.031 31.2624 184.019 31.1997C184.009 31.1337 184.002 31.0669 184 31C184 30.7348 184.105 30.4804 184.293 30.2929C184.48 30.1054 184.735 30 185 30C185.265 30 185.52 30.1054 185.707 30.2929C185.895 30.4804 186 30.7348 186 31C185.998 31.2651 185.894 31.5193 185.71 31.71C185.518 31.8924 185.265 31.9959 185 32Z" fill="#6D6DAA"/>
<path d="M169 32C168.869 31.9984 168.74 31.9712 168.62 31.9199C168.498 31.8715 168.386 31.8002 168.29 31.7099C168.107 31.5184 168.004 31.2648 168 31C167.996 30.8013 168.053 30.6061 168.164 30.4413C168.275 30.2764 168.434 30.1501 168.62 30.0796C168.803 30.0054 169.003 29.9858 169.196 30.0232C169.39 30.0605 169.568 30.1532 169.71 30.29C169.894 30.4807 169.998 30.7349 170 31C169.998 31.1306 169.971 31.2597 169.92 31.3799C169.872 31.5023 169.8 31.6143 169.71 31.71C169.518 31.8923 169.265 31.9959 169 32Z" fill="#6D6DAA"/>
<path d="M173 34C172.868 34.0013 172.738 33.9763 172.616 33.9265C172.494 33.8767 172.383 33.8031 172.29 33.71C172.197 33.6168 172.123 33.5061 172.073 33.3842C172.024 33.2623 171.999 33.1317 172 33C172.002 32.8692 172.029 32.74 172.08 32.6196C172.131 32.4986 172.202 32.3871 172.29 32.29C172.431 32.1511 172.609 32.0569 172.803 32.0194C172.997 31.982 173.198 32.0029 173.38 32.0796C173.504 32.1248 173.616 32.1965 173.71 32.2898C173.803 32.3831 173.875 32.4956 173.92 32.6196C173.971 32.7399 173.998 32.8692 174 33C174.001 33.1317 173.976 33.2623 173.926 33.3842C173.877 33.5061 173.803 33.6168 173.71 33.71C173.617 33.8031 173.506 33.8767 173.384 33.9265C173.262 33.9763 173.132 34.0013 173 34V34Z" fill="#6D6DAA"/>
<path d="M175 30C174.933 29.9977 174.866 29.991 174.8 29.98C174.737 29.9689 174.677 29.9486 174.62 29.9199C174.556 29.898 174.495 29.8676 174.439 29.8296C174.39 29.79 174.34 29.75 174.29 29.71C174.202 29.6127 174.131 29.5011 174.08 29.3799C174.029 29.2597 174.002 29.1307 174 29C174.003 28.7352 174.107 28.4815 174.29 28.29C174.337 28.2469 174.387 28.2068 174.439 28.1699C174.495 28.1319 174.556 28.1015 174.62 28.0796C174.677 28.0508 174.737 28.0307 174.8 28.02C174.962 27.9894 175.129 27.9979 175.288 28.0448C175.446 28.0918 175.591 28.1759 175.71 28.29C175.893 28.4818 175.996 28.7353 176 29C176.003 29.1311 175.976 29.2612 175.92 29.3799C175.869 29.5011 175.798 29.6127 175.71 29.71C175.518 29.8923 175.265 29.9959 175 30Z" fill="#6D6DAA"/>
<path d="M177 24C176.735 23.9961 176.482 23.8925 176.29 23.71C176.202 23.6127 176.131 23.5011 176.08 23.3799C176.024 23.2614 175.996 23.1312 176 23C175.999 22.8014 176.057 22.6069 176.167 22.4414C176.276 22.2759 176.433 22.1468 176.617 22.0706C176.8 21.9945 177.002 21.9747 177.197 22.0137C177.391 22.0528 177.57 22.149 177.71 22.29C177.803 22.3838 177.874 22.4961 177.92 22.6196C177.973 22.7394 178 22.8688 178 22.9997C178 23.1306 177.973 23.2601 177.92 23.3798C177.869 23.501 177.798 23.6127 177.71 23.7099C177.518 23.8923 177.265 23.9959 177 24V24Z" fill="#6D6DAA"/>
<path d="M189 26C188.735 25.9961 188.482 25.8925 188.29 25.71C188.247 25.6624 188.207 25.6123 188.17 25.5601C188.132 25.5044 188.102 25.4438 188.08 25.3799C188.051 25.3231 188.031 25.2624 188.019 25.1997C188.008 25.1337 188.002 25.067 188 25C188.003 24.7352 188.107 24.4815 188.29 24.29C188.409 24.1758 188.554 24.0917 188.712 24.0447C188.871 23.9978 189.038 23.9893 189.2 24.02C189.263 24.0309 189.323 24.0509 189.38 24.0796C189.443 24.1015 189.504 24.1319 189.56 24.1699C189.609 24.2099 189.66 24.25 189.71 24.29C189.892 24.4818 189.996 24.7353 190 25C189.998 25.067 189.992 25.1338 189.979 25.1997C189.969 25.2625 189.949 25.3232 189.92 25.3799C189.898 25.4436 189.868 25.5042 189.83 25.5601C189.79 25.6099 189.75 25.6597 189.71 25.71C189.66 25.75 189.609 25.79 189.56 25.8296C189.504 25.8676 189.444 25.8979 189.38 25.9199C189.323 25.9485 189.263 25.9687 189.2 25.98C189.134 25.9914 189.067 25.9981 189 26V26Z" fill="#6D6DAA"/>
<path d="M189 30C188.735 29.9961 188.482 29.8925 188.29 29.71C188.247 29.6624 188.207 29.6123 188.17 29.5601C188.132 29.5044 188.102 29.4438 188.08 29.3799C188.051 29.3231 188.031 29.2624 188.019 29.1997C188.008 29.1337 188.002 29.067 188 29C188.003 28.7352 188.107 28.4815 188.29 28.29C188.409 28.1758 188.554 28.0917 188.712 28.0447C188.871 27.9978 189.038 27.9893 189.2 28.02C189.263 28.0309 189.323 28.0509 189.38 28.0796C189.443 28.1015 189.504 28.1319 189.56 28.1699C189.612 28.2068 189.662 28.2469 189.71 28.29C189.893 28.4818 189.996 28.7353 190 29C189.998 29.067 189.992 29.1338 189.979 29.1997C189.969 29.2625 189.949 29.3232 189.92 29.3799C189.898 29.4436 189.868 29.5042 189.83 29.5601C189.79 29.6099 189.75 29.6597 189.71 29.71C189.66 29.75 189.609 29.79 189.56 29.8296C189.504 29.8676 189.444 29.8979 189.38 29.9199C189.323 29.9485 189.263 29.9687 189.2 29.98C189.134 29.9914 189.067 29.9981 189 30V30Z" fill="#6D6DAA"/>
<path d="M193 24C192.801 24.0046 192.606 23.9474 192.441 23.8364C192.277 23.7253 192.15 23.5658 192.08 23.3799C192.024 23.2613 191.996 23.1312 192 23C192.003 22.7352 192.107 22.4815 192.29 22.29C192.409 22.1758 192.554 22.0917 192.712 22.0447C192.871 21.9978 193.038 21.9893 193.2 22.02C193.263 22.0309 193.323 22.0509 193.38 22.0796C193.444 22.1015 193.504 22.1319 193.56 22.1699C193.609 22.2099 193.66 22.25 193.71 22.29C193.892 22.4818 193.996 22.7353 194 23C193.998 23.1306 193.971 23.2597 193.92 23.3799C193.85 23.5658 193.723 23.7253 193.559 23.8364C193.394 23.9474 193.199 24.0046 193 24V24Z" fill="#6D6DAA"/>
<path d="M197 27C196.735 26.9961 196.482 26.8925 196.29 26.71C196.106 26.5195 196.002 26.2652 196 26C196.002 25.8692 196.029 25.74 196.08 25.6196C196.131 25.4986 196.202 25.3871 196.29 25.29C196.483 25.1116 196.737 25.0125 197 25.0125C197.263 25.0125 197.517 25.1116 197.71 25.29C197.798 25.3871 197.869 25.4986 197.92 25.6196C197.971 25.74 197.998 25.8692 198 26C197.998 26.2651 197.894 26.5193 197.71 26.71C197.518 26.8924 197.265 26.9959 197 27Z" fill="#6D6DAA"/>
<path d="M188 36C187.933 35.9982 187.866 35.9915 187.8 35.98C187.737 35.9689 187.677 35.9486 187.62 35.9199C187.556 35.898 187.495 35.8676 187.439 35.8296C187.39 35.79 187.34 35.75 187.29 35.71C187.104 35.5204 187 35.2655 187 35C187 34.7345 187.104 34.4796 187.29 34.2901L187.439 34.17C187.495 34.132 187.556 34.1016 187.62 34.0796C187.677 34.0508 187.737 34.0307 187.8 34.02C187.962 33.9901 188.129 33.9989 188.287 34.0458C188.445 34.0928 188.59 34.1764 188.71 34.29C188.894 34.4807 188.998 34.7349 189 35C189.001 35.1317 188.976 35.2623 188.926 35.3842C188.877 35.5061 188.803 35.6168 188.71 35.71C188.617 35.8031 188.506 35.8767 188.384 35.9265C188.262 35.9763 188.132 36.0013 188 36V36Z" fill="#6D6DAA"/>
<path d="M165 30C164.735 29.9961 164.482 29.8925 164.29 29.71C164.247 29.6624 164.207 29.6123 164.17 29.5601C164.132 29.5044 164.102 29.4438 164.08 29.3799C164.029 29.2597 164.002 29.1307 164 29C164 28.7348 164.105 28.4804 164.293 28.2929C164.48 28.1054 164.735 28 165 28C165.265 28 165.52 28.1054 165.707 28.2929C165.895 28.4804 166 28.7348 166 29C165.998 29.1306 165.971 29.2597 165.92 29.3799C165.898 29.4436 165.868 29.5042 165.83 29.5601C165.79 29.6099 165.75 29.6597 165.71 29.71C165.518 29.8923 165.265 29.9959 165 30V30Z" fill="#6D6DAA"/>
<path d="M173 26C172.868 26.0013 172.738 25.9763 172.616 25.9265C172.494 25.8767 172.383 25.8031 172.29 25.71C172.197 25.6168 172.123 25.5061 172.073 25.3842C172.024 25.2623 171.999 25.1317 172 25C172.002 24.8692 172.029 24.74 172.08 24.6196C172.126 24.4961 172.198 24.3838 172.29 24.29C172.483 24.1116 172.737 24.0125 173 24.0125C173.263 24.0125 173.517 24.1116 173.71 24.29C173.803 24.3838 173.874 24.4961 173.92 24.6196C173.971 24.74 173.998 24.8692 174 25C174.001 25.1317 173.976 25.2623 173.926 25.3842C173.877 25.5061 173.803 25.6168 173.71 25.71C173.617 25.8031 173.506 25.8767 173.384 25.9265C173.262 25.9763 173.132 26.0013 173 26V26Z" fill="#6D6DAA"/>
</svg>
