<svg width="35" height="35" viewBox="0 0 35 35" fill="none" xmlns="http://www.w3.org/2000/svg">
<path fill-rule="evenodd" clip-rule="evenodd" d="M27.3216 25.7466V18.9146C27.3216 15.2542 25.3674 13.5508 22.7622 13.5508C20.6599 13.5508 19.7178 14.7076 19.1928 15.519V13.8308H15.232C15.2845 14.9491 15.232 25.7466 15.232 25.7466H19.1928V19.0919C19.1928 18.7367 19.2185 18.3808 19.3235 18.1265C19.6093 17.4148 20.2609 16.6781 21.3547 16.6781C22.7885 16.6781 23.3613 17.7707 23.3613 19.3719V25.7472H27.3216V25.7466ZM11.0594 12.2045C12.4402 12.2045 13.3006 11.2887 13.3006 10.1447C13.2749 8.97633 12.4402 8.08675 11.0857 8.08675C9.73117 8.08675 8.84508 8.97575 8.84508 10.1447C8.84508 11.2887 9.70492 12.2045 11.0343 12.2045H11.0594ZM13.0398 25.7466V13.8308H9.07958V25.7466H13.0398ZM0 0H35V35H0V0Z" fill="#333333"/>
</svg>
